{
    "asset" : {
        "generator" : "Khronos glTF Blender I/O v1.6.16",
        "version" : "2.0"
    },
    "extensionsUsed" : [
        "KHR_materials_clearcoat"
    ],
    "scene" : 0,
    "scenes" : [
        {
            "name" : "Scene",
            "nodes" : [
                0
            ]
        }
    ],
    "nodes" : [
        {
            "mesh" : 0,
            "name" : "Knife",
            "scale" : [
                0.26108819246292114,
                0.26108819246292114,
                0.26108819246292114
            ]
        }
    ],
    "materials" : [
        {
            "doubleSided" : true,
            "name" : "Handle",
            "pbrMetallicRoughness" : {
                "baseColorFactor" : [
                    0.025393731892108917,
                    0.025393731892108917,
                    0.025393731892108917,
                    1
                ],
                "metallicFactor" : 0,
                "roughnessFactor" : 0.75
            }
        },
        {
            "doubleSided" : true,
            "extensions" : {
                "KHR_materials_clearcoat" : {
                    "clearcoatFactor" : 0.5,
                    "clearcoatRoughnessFactor" : 0.029999999329447746
                }
            },
            "name" : "Blade",
            "pbrMetallicRoughness" : {
                "baseColorFactor" : [
                    0.29568997025489807,
                    0.29568997025489807,
                    0.29568997025489807,
                    1
                ],
                "metallicFactor" : 0.5,
                "roughnessFactor" : 0.25
            }
        }
    ],
    "meshes" : [
        {
            "name" : "Cube",
            "primitives" : [
                {
                    "attributes" : {
                        "POSITION" : 0,
                        "NORMAL" : 1,
                        "TEXCOORD_0" : 2
                    },
                    "indices" : 3,
                    "material" : 0
                },
                {
                    "attributes" : {
                        "POSITION" : 4,
                        "NORMAL" : 5,
                        "TEXCOORD_0" : 6
                    },
                    "indices" : 7,
                    "material" : 1
                }
            ]
        }
    ],
    "accessors" : [
        {
            "bufferView" : 0,
            "componentType" : 5126,
            "count" : 368,
            "max" : [
                -1.0610848665237427,
                1.6546462774276733,
                1
            ],
            "min" : [
                -8.76315975189209,
                -1.8235597610473633,
                -1
            ],
            "type" : "VEC3"
        },
        {
            "bufferView" : 1,
            "componentType" : 5126,
            "count" : 368,
            "type" : "VEC3"
        },
        {
            "bufferView" : 2,
            "componentType" : 5126,
            "count" : 368,
            "type" : "VEC2"
        },
        {
            "bufferView" : 3,
            "componentType" : 5123,
            "count" : 558,
            "type" : "SCALAR"
        },
        {
            "bufferView" : 4,
            "componentType" : 5126,
            "count" : 100,
            "max" : [
                7.593739032745361,
                0.9529733657836914,
                0.2874274253845215
            ],
            "min" : [
                -1.0610849857330322,
                -0.75664883852005,
                -0.2874274253845215
            ],
            "type" : "VEC3"
        },
        {
            "bufferView" : 5,
            "componentType" : 5126,
            "count" : 100,
            "type" : "VEC3"
        },
        {
            "bufferView" : 6,
            "componentType" : 5126,
            "count" : 100,
            "type" : "VEC2"
        },
        {
            "bufferView" : 7,
            "componentType" : 5123,
            "count" : 150,
            "type" : "SCALAR"
        }
    ],
    "bufferViews" : [
        {
            "buffer" : 0,
            "byteLength" : 4416,
            "byteOffset" : 0
        },
        {
            "buffer" : 0,
            "byteLength" : 4416,
            "byteOffset" : 4416
        },
        {
            "buffer" : 0,
            "byteLength" : 2944,
            "byteOffset" : 8832
        },
        {
            "buffer" : 0,
            "byteLength" : 1116,
            "byteOffset" : 11776
        },
        {
            "buffer" : 0,
            "byteLength" : 1200,
            "byteOffset" : 12892
        },
        {
            "buffer" : 0,
            "byteLength" : 1200,
            "byteOffset" : 14092
        },
        {
            "buffer" : 0,
            "byteLength" : 800,
            "byteOffset" : 15292
        },
        {
            "buffer" : 0,
            "byteLength" : 300,
            "byteOffset" : 16092
        }
    ],
    "buffers" : [
        {
            "byteLength" : 16392,
            "uri" : "data:application/octet-stream;base64,"
        }
    ]
}
